<mxfile host="app.diagrams.net" modified="2024-08-29T01:55:40.410Z" agent="Mozilla/5.0 (Windows NT 10.0; Win64; x64) AppleWebKit/537.36 (KHTML, like Gecko) Chrome/128.0.0.0 Safari/537.36 Edg/128.0.0.0" etag="4_FExWNy7206i8eT5QEQ" version="24.5.2" type="device" pages="4">
  <diagram name="ASIS CONTEXTO" id="U1eYawVTsrcXwy0vOlrY">
    <mxGraphModel dx="1638" dy="474" grid="1" gridSize="10" guides="1" tooltips="1" connect="1" arrows="1" fold="1" page="1" pageScale="1" pageWidth="850" pageHeight="1100" math="0" shadow="0">
      <root>
        <mxCell id="0" />
        <mxCell id="1" parent="0" />
        <object placeholders="1" c4Name="Empleado Banco" c4Type="Person" c4Description="Empleado Banco" label="&lt;font style=&quot;font-size: 16px&quot;&gt;&lt;b&gt;%c4Name%&lt;/b&gt;&lt;/font&gt;&lt;div&gt;[%c4Type%]&lt;/div&gt;&lt;br&gt;&lt;div&gt;&lt;font style=&quot;font-size: 11px&quot;&gt;&lt;font color=&quot;#cccccc&quot;&gt;%c4Description%&lt;/font&gt;&lt;/div&gt;" id="S2THn0Bw0A_V3JnA0I_x-1">
          <mxCell style="html=1;fontSize=11;dashed=0;whiteSpace=wrap;fillColor=#dae8fc;strokeColor=#6c8ebf;shape=mxgraph.c4.person2;align=center;metaEdit=1;points=[[0.5,0,0],[1,0.5,0],[1,0.75,0],[0.75,1,0],[0.5,1,0],[0.25,1,0],[0,0.75,0],[0,0.5,0]];resizable=0;" vertex="1" parent="1">
            <mxGeometry x="-60" y="50" width="200" height="180" as="geometry" />
          </mxCell>
        </object>
        <mxCell id="S2THn0Bw0A_V3JnA0I_x-18" value="&lt;b&gt;Componente interno del sistema&lt;/b&gt;" style="text;html=1;align=center;verticalAlign=middle;whiteSpace=wrap;rounded=0;fontColor=#FFFFFF;" vertex="1" parent="1">
          <mxGeometry x="660" y="90" width="190" height="30" as="geometry" />
        </mxCell>
        <object placeholders="1" c4Name="Cliente Banco" c4Type="Person" c4Description="Cliente Banco" label="&lt;font style=&quot;font-size: 16px&quot;&gt;&lt;b&gt;%c4Name%&lt;/b&gt;&lt;/font&gt;&lt;div&gt;[%c4Type%]&lt;/div&gt;&lt;br&gt;&lt;div&gt;&lt;font style=&quot;font-size: 11px&quot;&gt;&lt;font color=&quot;#cccccc&quot;&gt;%c4Description%&lt;/font&gt;&lt;/div&gt;" id="S2THn0Bw0A_V3JnA0I_x-25">
          <mxCell style="html=1;fontSize=11;dashed=0;whiteSpace=wrap;shape=mxgraph.c4.person2;align=center;metaEdit=1;points=[[0.5,0,0],[1,0.5,0],[1,0.75,0],[0.75,1,0],[0.5,1,0],[0.25,1,0],[0,0.75,0],[0,0.5,0]];resizable=0;" vertex="1" parent="1">
            <mxGeometry x="-380" y="50" width="200" height="180" as="geometry" />
          </mxCell>
        </object>
        <mxCell id="aUHGOJtfsKR4BDFobQit-6" style="edgeStyle=orthogonalEdgeStyle;rounded=0;orthogonalLoop=1;jettySize=auto;html=1;entryX=0;entryY=0.5;entryDx=0;entryDy=0;entryPerimeter=0;exitX=1.003;exitY=0.606;exitDx=0;exitDy=0;exitPerimeter=0;" edge="1" parent="1" source="S2THn0Bw0A_V3JnA0I_x-26" target="S2THn0Bw0A_V3JnA0I_x-30">
          <mxGeometry relative="1" as="geometry">
            <mxPoint x="350" y="580" as="targetPoint" />
            <Array as="points">
              <mxPoint x="230" y="423" />
              <mxPoint x="230" y="760" />
            </Array>
          </mxGeometry>
        </mxCell>
        <mxCell id="aUHGOJtfsKR4BDFobQit-8" value="Valida fraude (SARLAFT)" style="edgeLabel;html=1;align=center;verticalAlign=middle;resizable=0;points=[];" vertex="1" connectable="0" parent="aUHGOJtfsKR4BDFobQit-6">
          <mxGeometry x="0.5819" relative="1" as="geometry">
            <mxPoint x="20" y="-10" as="offset" />
          </mxGeometry>
        </mxCell>
        <object placeholders="1" c4Name="Core bancario tradicional exitente" c4Type="Software System" c4Description="Core bancario tradicional exitente" label="&lt;font style=&quot;font-size: 16px&quot;&gt;&lt;b&gt;%c4Name%&lt;/b&gt;&lt;/font&gt;&lt;div&gt;[%c4Type%]&lt;/div&gt;&lt;br&gt;&lt;div&gt;&lt;font style=&quot;font-size: 11px&quot;&gt;&lt;font color=&quot;#cccccc&quot;&gt;%c4Description%&lt;/font&gt;&lt;/div&gt;" id="S2THn0Bw0A_V3JnA0I_x-26">
          <mxCell style="rounded=1;whiteSpace=wrap;html=1;labelBackgroundColor=none;align=center;arcSize=10;metaEdit=1;resizable=0;points=[[0.25,0,0],[0.5,0,0],[0.75,0,0],[1,0.25,0],[1,0.5,0],[1,0.75,0],[0.75,1,0],[0.5,1,0],[0.25,1,0],[0,0.75,0],[0,0.5,0],[0,0.25,0]];fillColor=#dae8fc;strokeColor=#6c8ebf;" vertex="1" parent="1">
            <mxGeometry x="-80" y="350" width="240" height="120" as="geometry" />
          </mxCell>
        </object>
        <object placeholders="1" c4Name="Plataforma de servicios de pago (PSE)" c4Type="Software System" c4Description="Plataforma de servicios de pago (PSE)" label="&lt;font style=&quot;font-size: 16px&quot;&gt;&lt;b&gt;%c4Name%&lt;/b&gt;&lt;/font&gt;&lt;div&gt;[%c4Type%]&lt;/div&gt;&lt;br&gt;&lt;div&gt;&lt;font style=&quot;font-size: 11px&quot;&gt;&lt;font color=&quot;#cccccc&quot;&gt;%c4Description%&lt;/font&gt;&lt;/div&gt;" id="S2THn0Bw0A_V3JnA0I_x-28">
          <mxCell style="rounded=1;whiteSpace=wrap;html=1;labelBackgroundColor=none;align=center;arcSize=10;metaEdit=1;resizable=0;points=[[0.25,0,0],[0.5,0,0],[0.75,0,0],[1,0.25,0],[1,0.5,0],[1,0.75,0],[0.75,1,0],[0.5,1,0],[0.25,1,0],[0,0.75,0],[0,0.5,0],[0,0.25,0]];fillColor=#808080;strokeColor=#666666;fontColor=#333333;" vertex="1" parent="1">
            <mxGeometry x="500" y="180" width="240" height="120" as="geometry" />
          </mxCell>
        </object>
        <object placeholders="1" c4Name="Sistema de gestion de riesgos (Expirian)" c4Type="Software System" c4Description="Sistema de gestion de riesgos (Expirian)" label="&lt;font style=&quot;font-size: 16px&quot;&gt;&lt;b&gt;%c4Name%&lt;/b&gt;&lt;/font&gt;&lt;div&gt;[%c4Type%]&lt;/div&gt;&lt;br&gt;&lt;div&gt;&lt;font style=&quot;font-size: 11px&quot;&gt;&lt;font color=&quot;#cccccc&quot;&gt;%c4Description%&lt;/font&gt;&lt;/div&gt;" id="S2THn0Bw0A_V3JnA0I_x-29">
          <mxCell style="rounded=1;whiteSpace=wrap;html=1;labelBackgroundColor=none;align=center;arcSize=10;metaEdit=1;resizable=0;points=[[0.25,0,0],[0.5,0,0],[0.75,0,0],[1,0.25,0],[1,0.5,0],[1,0.75,0],[0.75,1,0],[0.5,1,0],[0.25,1,0],[0,0.75,0],[0,0.5,0],[0,0.25,0]];fillColor=#808080;strokeColor=#666666;fontColor=#333333;" vertex="1" parent="1">
            <mxGeometry x="490" y="420" width="240" height="120" as="geometry" />
          </mxCell>
        </object>
        <object placeholders="1" c4Name="Sistema de prevención de fraudes" c4Type="Software System" c4Description="Sistema de prevención de fraudes" label="&lt;font style=&quot;font-size: 16px&quot;&gt;&lt;b&gt;%c4Name%&lt;/b&gt;&lt;/font&gt;&lt;div&gt;[%c4Type%]&lt;/div&gt;&lt;br&gt;&lt;div&gt;&lt;font style=&quot;font-size: 11px&quot;&gt;&lt;font color=&quot;#cccccc&quot;&gt;%c4Description%&lt;/font&gt;&lt;/div&gt;" id="S2THn0Bw0A_V3JnA0I_x-30">
          <mxCell style="rounded=1;whiteSpace=wrap;html=1;labelBackgroundColor=none;align=center;arcSize=10;metaEdit=1;resizable=0;points=[[0.25,0,0],[0.5,0,0],[0.75,0,0],[1,0.25,0],[1,0.5,0],[1,0.75,0],[0.75,1,0],[0.5,1,0],[0.25,1,0],[0,0.75,0],[0,0.5,0],[0,0.25,0]];fillColor=#808080;strokeColor=#666666;fontColor=#333333;" vertex="1" parent="1">
            <mxGeometry x="500" y="700" width="240" height="120" as="geometry" />
          </mxCell>
        </object>
        <object placeholders="1" c4Name="Container name" c4Type="Container" c4Technology="e.g. Oracle Database 12" c4Description="Description of storage type container role/responsibility." label="&lt;font style=&quot;font-size: 16px&quot;&gt;&lt;b&gt;%c4Name%&lt;/b&gt;&lt;/font&gt;&lt;div&gt;[%c4Type%:&amp;nbsp;%c4Technology%]&lt;/div&gt;&lt;br&gt;&lt;div&gt;&lt;font style=&quot;font-size: 11px&quot;&gt;&lt;font color=&quot;#E6E6E6&quot;&gt;%c4Description%&lt;/font&gt;&lt;/div&gt;" id="S2THn0Bw0A_V3JnA0I_x-31">
          <mxCell style="shape=cylinder3;size=15;whiteSpace=wrap;html=1;boundedLbl=1;rounded=0;labelBackgroundColor=none;fillColor=#23A2D9;fontSize=12;fontColor=#ffffff;align=center;strokeColor=#0E7DAD;metaEdit=1;points=[[0.5,0,0],[1,0.25,0],[1,0.5,0],[1,0.75,0],[0.5,1,0],[0,0.75,0],[0,0.5,0],[0,0.25,0]];resizable=0;" vertex="1" parent="1">
            <mxGeometry x="-80" y="550" width="240" height="120" as="geometry" />
          </mxCell>
        </object>
        <object placeholders="1" c4Name="System name" c4Type="SystemScopeBoundary" c4Application="Software System" label="&lt;font style=&quot;font-size: 16px&quot;&gt;&lt;b&gt;&lt;div style=&quot;text-align: left&quot;&gt;%c4Name%&lt;/div&gt;&lt;/b&gt;&lt;/font&gt;&lt;div style=&quot;text-align: left&quot;&gt;[%c4Application%]&lt;/div&gt;" id="S2THn0Bw0A_V3JnA0I_x-32">
          <mxCell style="rounded=1;fontSize=11;whiteSpace=wrap;html=1;dashed=1;arcSize=20;fillColor=none;strokeColor=#666666;fontColor=#333333;labelBackgroundColor=none;align=left;verticalAlign=bottom;labelBorderColor=none;spacingTop=0;spacing=10;dashPattern=8 4;metaEdit=1;rotatable=0;perimeter=rectanglePerimeter;noLabel=0;labelPadding=0;allowArrows=0;connectable=0;expand=0;recursiveResize=0;editable=1;pointerEvents=0;absoluteArcSize=1;points=[[0.25,0,0],[0.5,0,0],[0.75,0,0],[1,0.25,0],[1,0.5,0],[1,0.75,0],[0.75,1,0],[0.5,1,0],[0.25,1,0],[0,0.75,0],[0,0.5,0],[0,0.25,0]];" vertex="1" parent="1">
            <mxGeometry x="-250" y="330" width="560" height="360" as="geometry" />
          </mxCell>
        </object>
        <object placeholders="1" c4Name="Sistema Externo" c4Type="SystemScopeBoundary" c4Application="Sistema Externo" label="&lt;font style=&quot;font-size: 16px&quot;&gt;&lt;b&gt;&lt;div style=&quot;text-align: left&quot;&gt;%c4Name%&lt;/div&gt;&lt;/b&gt;&lt;/font&gt;&lt;div style=&quot;text-align: left&quot;&gt;[%c4Application%]&lt;/div&gt;" id="S2THn0Bw0A_V3JnA0I_x-33">
          <mxCell style="rounded=1;fontSize=11;whiteSpace=wrap;html=1;dashed=1;arcSize=20;fillColor=none;strokeColor=#666666;fontColor=#333333;labelBackgroundColor=none;align=left;verticalAlign=bottom;labelBorderColor=none;spacingTop=0;spacing=10;dashPattern=8 4;metaEdit=1;rotatable=0;perimeter=rectanglePerimeter;noLabel=0;labelPadding=0;allowArrows=0;connectable=0;expand=0;recursiveResize=0;editable=1;pointerEvents=0;absoluteArcSize=1;points=[[0.25,0,0],[0.5,0,0],[0.75,0,0],[1,0.25,0],[1,0.5,0],[1,0.75,0],[0.75,1,0],[0.5,1,0],[0.25,1,0],[0,0.75,0],[0,0.5,0],[0,0.25,0]];" vertex="1" parent="1">
            <mxGeometry x="470" y="400" width="280" height="190" as="geometry" />
          </mxCell>
        </object>
        <object placeholders="1" c4Name="Sistema Externo" c4Type="SystemScopeBoundary" c4Application="Sistema Externo" label="&lt;font style=&quot;font-size: 16px&quot;&gt;&lt;b&gt;&lt;div style=&quot;text-align: left&quot;&gt;%c4Name%&lt;/div&gt;&lt;/b&gt;&lt;/font&gt;&lt;div style=&quot;text-align: left&quot;&gt;[%c4Application%]&lt;/div&gt;" id="S2THn0Bw0A_V3JnA0I_x-34">
          <mxCell style="rounded=1;fontSize=11;whiteSpace=wrap;html=1;dashed=1;arcSize=20;fillColor=none;strokeColor=#666666;fontColor=#333333;labelBackgroundColor=none;align=left;verticalAlign=bottom;labelBorderColor=none;spacingTop=0;spacing=10;dashPattern=8 4;metaEdit=1;rotatable=0;perimeter=rectanglePerimeter;noLabel=0;labelPadding=0;allowArrows=0;connectable=0;expand=0;recursiveResize=0;editable=1;pointerEvents=0;absoluteArcSize=1;points=[[0.25,0,0],[0.5,0,0],[0.75,0,0],[1,0.25,0],[1,0.5,0],[1,0.75,0],[0.75,1,0],[0.5,1,0],[0.25,1,0],[0,0.75,0],[0,0.5,0],[0,0.25,0]];" vertex="1" parent="1">
            <mxGeometry x="470" y="160" width="300" height="190" as="geometry" />
          </mxCell>
        </object>
        <object placeholders="1" c4Name="Sistema Externo" c4Type="SystemScopeBoundary" c4Application="Sistema Externo" label="&lt;font style=&quot;font-size: 16px&quot;&gt;&lt;b&gt;&lt;div style=&quot;text-align: left&quot;&gt;%c4Name%&lt;/div&gt;&lt;/b&gt;&lt;/font&gt;&lt;div style=&quot;text-align: left&quot;&gt;[%c4Application%]&lt;/div&gt;" id="S2THn0Bw0A_V3JnA0I_x-35">
          <mxCell style="rounded=1;fontSize=11;whiteSpace=wrap;html=1;dashed=1;arcSize=20;fillColor=none;strokeColor=#666666;fontColor=#333333;labelBackgroundColor=none;align=left;verticalAlign=bottom;labelBorderColor=none;spacingTop=0;spacing=10;dashPattern=8 4;metaEdit=1;rotatable=0;perimeter=rectanglePerimeter;noLabel=0;labelPadding=0;allowArrows=0;connectable=0;expand=0;recursiveResize=0;editable=1;pointerEvents=0;absoluteArcSize=1;points=[[0.25,0,0],[0.5,0,0],[0.75,0,0],[1,0.25,0],[1,0.5,0],[1,0.75,0],[0.75,1,0],[0.5,1,0],[0.25,1,0],[0,0.75,0],[0,0.5,0],[0,0.25,0]];" vertex="1" parent="1">
            <mxGeometry x="470" y="690" width="300" height="180" as="geometry" />
          </mxCell>
        </object>
        <mxCell id="S2THn0Bw0A_V3JnA0I_x-36" style="edgeStyle=orthogonalEdgeStyle;rounded=0;orthogonalLoop=1;jettySize=auto;html=1;exitX=0.5;exitY=1;exitDx=0;exitDy=0;exitPerimeter=0;entryX=0.5;entryY=0;entryDx=0;entryDy=0;entryPerimeter=0;" edge="1" parent="1" source="S2THn0Bw0A_V3JnA0I_x-1" target="S2THn0Bw0A_V3JnA0I_x-26">
          <mxGeometry relative="1" as="geometry" />
        </mxCell>
        <mxCell id="GSKwS9eqllDYx0gJRVGr-3" value="Gestiona Servicios&amp;nbsp;&lt;div&gt;bancarios&lt;/div&gt;" style="edgeLabel;html=1;align=center;verticalAlign=middle;resizable=0;points=[];" vertex="1" connectable="0" parent="S2THn0Bw0A_V3JnA0I_x-36">
          <mxGeometry x="-0.6222" y="2" relative="1" as="geometry">
            <mxPoint x="58" y="3" as="offset" />
          </mxGeometry>
        </mxCell>
        <mxCell id="S2THn0Bw0A_V3JnA0I_x-44" style="edgeStyle=orthogonalEdgeStyle;rounded=0;orthogonalLoop=1;jettySize=auto;html=1;exitX=0.5;exitY=1;exitDx=0;exitDy=0;exitPerimeter=0;entryX=0.5;entryY=0;entryDx=0;entryDy=0;entryPerimeter=0;" edge="1" parent="1" source="S2THn0Bw0A_V3JnA0I_x-26" target="S2THn0Bw0A_V3JnA0I_x-31">
          <mxGeometry relative="1" as="geometry" />
        </mxCell>
        <mxCell id="GSKwS9eqllDYx0gJRVGr-2" style="edgeStyle=orthogonalEdgeStyle;rounded=0;orthogonalLoop=1;jettySize=auto;html=1;exitX=0.5;exitY=1;exitDx=0;exitDy=0;exitPerimeter=0;entryX=0;entryY=0.5;entryDx=0;entryDy=0;entryPerimeter=0;" edge="1" parent="1" source="S2THn0Bw0A_V3JnA0I_x-25" target="S2THn0Bw0A_V3JnA0I_x-26">
          <mxGeometry relative="1" as="geometry" />
        </mxCell>
        <mxCell id="GSKwS9eqllDYx0gJRVGr-5" value="Solicitar servicios,&amp;nbsp;&lt;div&gt;productos y asesores&amp;nbsp;&lt;/div&gt;" style="edgeLabel;html=1;align=center;verticalAlign=middle;resizable=0;points=[];" vertex="1" connectable="0" parent="GSKwS9eqllDYx0gJRVGr-2">
          <mxGeometry x="-0.8632" y="-1" relative="1" as="geometry">
            <mxPoint x="61" y="-1" as="offset" />
          </mxGeometry>
        </mxCell>
        <mxCell id="GSKwS9eqllDYx0gJRVGr-4" value="Gestiona Servicios&amp;nbsp;&lt;div&gt;bancarios&lt;/div&gt;" style="edgeLabel;html=1;align=center;verticalAlign=middle;resizable=0;points=[];" vertex="1" connectable="0" parent="1">
          <mxGeometry x="110" y="265.5" as="geometry" />
        </mxCell>
        <mxCell id="aUHGOJtfsKR4BDFobQit-4" style="edgeStyle=orthogonalEdgeStyle;rounded=0;orthogonalLoop=1;jettySize=auto;html=1;entryX=0;entryY=0.5;entryDx=0;entryDy=0;entryPerimeter=0;exitX=0.996;exitY=0.397;exitDx=0;exitDy=0;exitPerimeter=0;" edge="1" parent="1" source="S2THn0Bw0A_V3JnA0I_x-26" target="S2THn0Bw0A_V3JnA0I_x-28">
          <mxGeometry relative="1" as="geometry">
            <Array as="points">
              <mxPoint x="230" y="398" />
              <mxPoint x="230" y="240" />
            </Array>
          </mxGeometry>
        </mxCell>
        <mxCell id="aUHGOJtfsKR4BDFobQit-9" value="&lt;blockquote style=&quot;margin: 0 0 0 40px; border: none; padding: 0px;&quot;&gt;Gestiona pagos&lt;/blockquote&gt;" style="edgeLabel;html=1;align=center;verticalAlign=middle;resizable=0;points=[];" vertex="1" connectable="0" parent="aUHGOJtfsKR4BDFobQit-4">
          <mxGeometry x="0.5061" y="1" relative="1" as="geometry">
            <mxPoint x="-21" y="-9" as="offset" />
          </mxGeometry>
        </mxCell>
        <mxCell id="aUHGOJtfsKR4BDFobQit-5" style="edgeStyle=orthogonalEdgeStyle;rounded=0;orthogonalLoop=1;jettySize=auto;html=1;exitX=1;exitY=0.5;exitDx=0;exitDy=0;exitPerimeter=0;entryX=0;entryY=0.5;entryDx=0;entryDy=0;entryPerimeter=0;" edge="1" parent="1" source="S2THn0Bw0A_V3JnA0I_x-26" target="S2THn0Bw0A_V3JnA0I_x-29">
          <mxGeometry relative="1" as="geometry" />
        </mxCell>
        <mxCell id="aUHGOJtfsKR4BDFobQit-7" value="Valida datacredito" style="edgeLabel;html=1;align=center;verticalAlign=middle;resizable=0;points=[];" vertex="1" connectable="0" parent="aUHGOJtfsKR4BDFobQit-5">
          <mxGeometry x="0.023" y="1" relative="1" as="geometry">
            <mxPoint x="52" y="12" as="offset" />
          </mxGeometry>
        </mxCell>
      </root>
    </mxGraphModel>
  </diagram>
  <diagram name="TOBE CONTEXTO" id="zDzRxAgmhGiMbK6oGwh6">
    <mxGraphModel dx="1796" dy="569" grid="1" gridSize="10" guides="1" tooltips="1" connect="1" arrows="1" fold="1" page="1" pageScale="1" pageWidth="850" pageHeight="1100" math="0" shadow="0">
      <root>
        <mxCell id="HLCw0T0IoHX27H9TgyoR-0" />
        <mxCell id="HLCw0T0IoHX27H9TgyoR-1" parent="HLCw0T0IoHX27H9TgyoR-0" />
        <object placeholders="1" c4Name="Empleado Banco" c4Type="Person" c4Description="Empleado Banco" label="&lt;font style=&quot;font-size: 16px&quot;&gt;&lt;b&gt;%c4Name%&lt;/b&gt;&lt;/font&gt;&lt;div&gt;[%c4Type%]&lt;/div&gt;&lt;br&gt;&lt;div&gt;&lt;font style=&quot;font-size: 11px&quot;&gt;&lt;font color=&quot;#cccccc&quot;&gt;%c4Description%&lt;/font&gt;&lt;/div&gt;" id="HLCw0T0IoHX27H9TgyoR-2">
          <mxCell style="html=1;fontSize=11;dashed=0;whiteSpace=wrap;fillColor=#dae8fc;strokeColor=#6c8ebf;shape=mxgraph.c4.person2;align=center;metaEdit=1;points=[[0.5,0,0],[1,0.5,0],[1,0.75,0],[0.75,1,0],[0.5,1,0],[0.25,1,0],[0,0.75,0],[0,0.5,0]];resizable=0;" vertex="1" parent="HLCw0T0IoHX27H9TgyoR-1">
            <mxGeometry x="-60" y="50" width="200" height="180" as="geometry" />
          </mxCell>
        </object>
        <mxCell id="HLCw0T0IoHX27H9TgyoR-3" value="&lt;b&gt;Componente interno del sistema&lt;/b&gt;" style="text;html=1;align=center;verticalAlign=middle;whiteSpace=wrap;rounded=0;fontColor=#FFFFFF;" vertex="1" parent="HLCw0T0IoHX27H9TgyoR-1">
          <mxGeometry x="660" y="90" width="190" height="30" as="geometry" />
        </mxCell>
        <object placeholders="1" c4Name="Cliente Banco" c4Type="Person" c4Description="Cliente Banco" label="&lt;font style=&quot;font-size: 16px&quot;&gt;&lt;b&gt;%c4Name%&lt;/b&gt;&lt;/font&gt;&lt;div&gt;[%c4Type%]&lt;/div&gt;&lt;br&gt;&lt;div&gt;&lt;font style=&quot;font-size: 11px&quot;&gt;&lt;font color=&quot;#cccccc&quot;&gt;%c4Description%&lt;/font&gt;&lt;/div&gt;" id="HLCw0T0IoHX27H9TgyoR-4">
          <mxCell style="html=1;fontSize=11;dashed=0;whiteSpace=wrap;shape=mxgraph.c4.person2;align=center;metaEdit=1;points=[[0.5,0,0],[1,0.5,0],[1,0.75,0],[0.75,1,0],[0.5,1,0],[0.25,1,0],[0,0.75,0],[0,0.5,0]];resizable=0;" vertex="1" parent="HLCw0T0IoHX27H9TgyoR-1">
            <mxGeometry x="-380" y="50" width="200" height="180" as="geometry" />
          </mxCell>
        </object>
        <mxCell id="HLCw0T0IoHX27H9TgyoR-5" style="edgeStyle=orthogonalEdgeStyle;rounded=0;orthogonalLoop=1;jettySize=auto;html=1;entryX=0;entryY=0.5;entryDx=0;entryDy=0;entryPerimeter=0;exitX=1.003;exitY=0.606;exitDx=0;exitDy=0;exitPerimeter=0;" edge="1" parent="HLCw0T0IoHX27H9TgyoR-1" source="HLCw0T0IoHX27H9TgyoR-7" target="HLCw0T0IoHX27H9TgyoR-10">
          <mxGeometry relative="1" as="geometry">
            <mxPoint x="350" y="580" as="targetPoint" />
            <Array as="points">
              <mxPoint x="230" y="423" />
              <mxPoint x="230" y="760" />
            </Array>
          </mxGeometry>
        </mxCell>
        <mxCell id="HLCw0T0IoHX27H9TgyoR-6" value="Valida fraude (SARLAFT)" style="edgeLabel;html=1;align=center;verticalAlign=middle;resizable=0;points=[];" vertex="1" connectable="0" parent="HLCw0T0IoHX27H9TgyoR-5">
          <mxGeometry x="0.5819" relative="1" as="geometry">
            <mxPoint x="20" y="-10" as="offset" />
          </mxGeometry>
        </mxCell>
        <object placeholders="1" c4Name="Core bancario digital" c4Type="Software System" c4Description="Core bancario digital" label="&lt;font style=&quot;font-size: 16px&quot;&gt;&lt;b&gt;%c4Name%&lt;/b&gt;&lt;/font&gt;&lt;div&gt;[%c4Type%]&lt;/div&gt;&lt;br&gt;&lt;div&gt;&lt;font style=&quot;font-size: 11px&quot;&gt;&lt;font color=&quot;#cccccc&quot;&gt;%c4Description%&lt;/font&gt;&lt;/div&gt;" id="HLCw0T0IoHX27H9TgyoR-7">
          <mxCell style="rounded=1;whiteSpace=wrap;html=1;labelBackgroundColor=none;align=center;arcSize=10;metaEdit=1;resizable=0;points=[[0.25,0,0],[0.5,0,0],[0.75,0,0],[1,0.25,0],[1,0.5,0],[1,0.75,0],[0.75,1,0],[0.5,1,0],[0.25,1,0],[0,0.75,0],[0,0.5,0],[0,0.25,0]];fillColor=#dae8fc;strokeColor=#6c8ebf;" vertex="1" parent="HLCw0T0IoHX27H9TgyoR-1">
            <mxGeometry x="-80" y="350" width="240" height="120" as="geometry" />
          </mxCell>
        </object>
        <object placeholders="1" c4Name="Plataforma de servicios de pago (PSE)" c4Type="Software System" c4Description="Plataforma de servicios de pago (PSE)" label="&lt;font style=&quot;font-size: 16px&quot;&gt;&lt;b&gt;%c4Name%&lt;/b&gt;&lt;/font&gt;&lt;div&gt;[%c4Type%]&lt;/div&gt;&lt;br&gt;&lt;div&gt;&lt;font style=&quot;font-size: 11px&quot;&gt;&lt;font color=&quot;#cccccc&quot;&gt;%c4Description%&lt;/font&gt;&lt;/div&gt;" id="HLCw0T0IoHX27H9TgyoR-8">
          <mxCell style="rounded=1;whiteSpace=wrap;html=1;labelBackgroundColor=none;align=center;arcSize=10;metaEdit=1;resizable=0;points=[[0.25,0,0],[0.5,0,0],[0.75,0,0],[1,0.25,0],[1,0.5,0],[1,0.75,0],[0.75,1,0],[0.5,1,0],[0.25,1,0],[0,0.75,0],[0,0.5,0],[0,0.25,0]];fillColor=#808080;strokeColor=#666666;fontColor=#333333;" vertex="1" parent="HLCw0T0IoHX27H9TgyoR-1">
            <mxGeometry x="500" y="180" width="240" height="120" as="geometry" />
          </mxCell>
        </object>
        <object placeholders="1" c4Name="Sistema de gestion de riesgos (Expirian)" c4Type="Software System" c4Description="Sistema de gestion de riesgos (Expirian)" label="&lt;font style=&quot;font-size: 16px&quot;&gt;&lt;b&gt;%c4Name%&lt;/b&gt;&lt;/font&gt;&lt;div&gt;[%c4Type%]&lt;/div&gt;&lt;br&gt;&lt;div&gt;&lt;font style=&quot;font-size: 11px&quot;&gt;&lt;font color=&quot;#cccccc&quot;&gt;%c4Description%&lt;/font&gt;&lt;/div&gt;" id="HLCw0T0IoHX27H9TgyoR-9">
          <mxCell style="rounded=1;whiteSpace=wrap;html=1;labelBackgroundColor=none;align=center;arcSize=10;metaEdit=1;resizable=0;points=[[0.25,0,0],[0.5,0,0],[0.75,0,0],[1,0.25,0],[1,0.5,0],[1,0.75,0],[0.75,1,0],[0.5,1,0],[0.25,1,0],[0,0.75,0],[0,0.5,0],[0,0.25,0]];fillColor=#808080;strokeColor=#666666;fontColor=#333333;" vertex="1" parent="HLCw0T0IoHX27H9TgyoR-1">
            <mxGeometry x="490" y="420" width="240" height="120" as="geometry" />
          </mxCell>
        </object>
        <object placeholders="1" c4Name="Sistema de prevención de fraudes" c4Type="Software System" c4Description="Sistema de prevención de fraudes" label="&lt;font style=&quot;font-size: 16px&quot;&gt;&lt;b&gt;%c4Name%&lt;/b&gt;&lt;/font&gt;&lt;div&gt;[%c4Type%]&lt;/div&gt;&lt;br&gt;&lt;div&gt;&lt;font style=&quot;font-size: 11px&quot;&gt;&lt;font color=&quot;#cccccc&quot;&gt;%c4Description%&lt;/font&gt;&lt;/div&gt;" id="HLCw0T0IoHX27H9TgyoR-10">
          <mxCell style="rounded=1;whiteSpace=wrap;html=1;labelBackgroundColor=none;align=center;arcSize=10;metaEdit=1;resizable=0;points=[[0.25,0,0],[0.5,0,0],[0.75,0,0],[1,0.25,0],[1,0.5,0],[1,0.75,0],[0.75,1,0],[0.5,1,0],[0.25,1,0],[0,0.75,0],[0,0.5,0],[0,0.25,0]];fillColor=#808080;strokeColor=#666666;fontColor=#333333;" vertex="1" parent="HLCw0T0IoHX27H9TgyoR-1">
            <mxGeometry x="490" y="700" width="240" height="120" as="geometry" />
          </mxCell>
        </object>
        <object placeholders="1" c4Name="Container name" c4Type="Container" c4Technology="e.g. Oracle Database 12" c4Description="Description of storage type container role/responsibility." label="&lt;font style=&quot;font-size: 16px&quot;&gt;&lt;b&gt;%c4Name%&lt;/b&gt;&lt;/font&gt;&lt;div&gt;[%c4Type%:&amp;nbsp;%c4Technology%]&lt;/div&gt;&lt;br&gt;&lt;div&gt;&lt;font style=&quot;font-size: 11px&quot;&gt;&lt;font color=&quot;#E6E6E6&quot;&gt;%c4Description%&lt;/font&gt;&lt;/div&gt;" id="HLCw0T0IoHX27H9TgyoR-11">
          <mxCell style="shape=cylinder3;size=15;whiteSpace=wrap;html=1;boundedLbl=1;rounded=0;labelBackgroundColor=none;fillColor=#23A2D9;fontSize=12;fontColor=#ffffff;align=center;strokeColor=#0E7DAD;metaEdit=1;points=[[0.5,0,0],[1,0.25,0],[1,0.5,0],[1,0.75,0],[0.5,1,0],[0,0.75,0],[0,0.5,0],[0,0.25,0]];resizable=0;" vertex="1" parent="HLCw0T0IoHX27H9TgyoR-1">
            <mxGeometry x="-80" y="550" width="240" height="120" as="geometry" />
          </mxCell>
        </object>
        <object placeholders="1" c4Name="System name" c4Type="SystemScopeBoundary" c4Application="Software System" label="&lt;font style=&quot;font-size: 16px&quot;&gt;&lt;b&gt;&lt;div style=&quot;text-align: left&quot;&gt;%c4Name%&lt;/div&gt;&lt;/b&gt;&lt;/font&gt;&lt;div style=&quot;text-align: left&quot;&gt;[%c4Application%]&lt;/div&gt;" id="HLCw0T0IoHX27H9TgyoR-12">
          <mxCell style="rounded=1;fontSize=11;whiteSpace=wrap;html=1;dashed=1;arcSize=20;fillColor=none;strokeColor=#666666;fontColor=#333333;labelBackgroundColor=none;align=left;verticalAlign=bottom;labelBorderColor=none;spacingTop=0;spacing=10;dashPattern=8 4;metaEdit=1;rotatable=0;perimeter=rectanglePerimeter;noLabel=0;labelPadding=0;allowArrows=0;connectable=0;expand=0;recursiveResize=0;editable=1;pointerEvents=0;absoluteArcSize=1;points=[[0.25,0,0],[0.5,0,0],[0.75,0,0],[1,0.25,0],[1,0.5,0],[1,0.75,0],[0.75,1,0],[0.5,1,0],[0.25,1,0],[0,0.75,0],[0,0.5,0],[0,0.25,0]];" vertex="1" parent="HLCw0T0IoHX27H9TgyoR-1">
            <mxGeometry x="-250" y="330" width="560" height="360" as="geometry" />
          </mxCell>
        </object>
        <object placeholders="1" c4Name="Sistema Externo" c4Type="SystemScopeBoundary" c4Application="Sistema Externo" label="&lt;font style=&quot;font-size: 16px&quot;&gt;&lt;b&gt;&lt;div style=&quot;text-align: left&quot;&gt;%c4Name%&lt;/div&gt;&lt;/b&gt;&lt;/font&gt;&lt;div style=&quot;text-align: left&quot;&gt;[%c4Application%]&lt;/div&gt;" id="HLCw0T0IoHX27H9TgyoR-13">
          <mxCell style="rounded=1;fontSize=11;whiteSpace=wrap;html=1;dashed=1;arcSize=20;fillColor=none;strokeColor=#666666;fontColor=#333333;labelBackgroundColor=none;align=left;verticalAlign=bottom;labelBorderColor=none;spacingTop=0;spacing=10;dashPattern=8 4;metaEdit=1;rotatable=0;perimeter=rectanglePerimeter;noLabel=0;labelPadding=0;allowArrows=0;connectable=0;expand=0;recursiveResize=0;editable=1;pointerEvents=0;absoluteArcSize=1;points=[[0.25,0,0],[0.5,0,0],[0.75,0,0],[1,0.25,0],[1,0.5,0],[1,0.75,0],[0.75,1,0],[0.5,1,0],[0.25,1,0],[0,0.75,0],[0,0.5,0],[0,0.25,0]];" vertex="1" parent="HLCw0T0IoHX27H9TgyoR-1">
            <mxGeometry x="470" y="400" width="280" height="190" as="geometry" />
          </mxCell>
        </object>
        <object placeholders="1" c4Name="Sistema Externo" c4Type="SystemScopeBoundary" c4Application="Sistema Externo" label="&lt;font style=&quot;font-size: 16px&quot;&gt;&lt;b&gt;&lt;div style=&quot;text-align: left&quot;&gt;%c4Name%&lt;/div&gt;&lt;/b&gt;&lt;/font&gt;&lt;div style=&quot;text-align: left&quot;&gt;[%c4Application%]&lt;/div&gt;" id="HLCw0T0IoHX27H9TgyoR-14">
          <mxCell style="rounded=1;fontSize=11;whiteSpace=wrap;html=1;dashed=1;arcSize=20;fillColor=none;strokeColor=#666666;fontColor=#333333;labelBackgroundColor=none;align=left;verticalAlign=bottom;labelBorderColor=none;spacingTop=0;spacing=10;dashPattern=8 4;metaEdit=1;rotatable=0;perimeter=rectanglePerimeter;noLabel=0;labelPadding=0;allowArrows=0;connectable=0;expand=0;recursiveResize=0;editable=1;pointerEvents=0;absoluteArcSize=1;points=[[0.25,0,0],[0.5,0,0],[0.75,0,0],[1,0.25,0],[1,0.5,0],[1,0.75,0],[0.75,1,0],[0.5,1,0],[0.25,1,0],[0,0.75,0],[0,0.5,0],[0,0.25,0]];" vertex="1" parent="HLCw0T0IoHX27H9TgyoR-1">
            <mxGeometry x="470" y="160" width="300" height="190" as="geometry" />
          </mxCell>
        </object>
        <object placeholders="1" c4Name="Sistema Externo" c4Type="SystemScopeBoundary" c4Application="Sistema Externo" label="&lt;font style=&quot;font-size: 16px&quot;&gt;&lt;b&gt;&lt;div style=&quot;text-align: left&quot;&gt;%c4Name%&lt;/div&gt;&lt;/b&gt;&lt;/font&gt;&lt;div style=&quot;text-align: left&quot;&gt;[%c4Application%]&lt;/div&gt;" id="HLCw0T0IoHX27H9TgyoR-15">
          <mxCell style="rounded=1;fontSize=11;whiteSpace=wrap;html=1;dashed=1;arcSize=20;fillColor=none;strokeColor=#666666;fontColor=#333333;labelBackgroundColor=none;align=left;verticalAlign=bottom;labelBorderColor=none;spacingTop=0;spacing=10;dashPattern=8 4;metaEdit=1;rotatable=0;perimeter=rectanglePerimeter;noLabel=0;labelPadding=0;allowArrows=0;connectable=0;expand=0;recursiveResize=0;editable=1;pointerEvents=0;absoluteArcSize=1;points=[[0.25,0,0],[0.5,0,0],[0.75,0,0],[1,0.25,0],[1,0.5,0],[1,0.75,0],[0.75,1,0],[0.5,1,0],[0.25,1,0],[0,0.75,0],[0,0.5,0],[0,0.25,0]];" vertex="1" parent="HLCw0T0IoHX27H9TgyoR-1">
            <mxGeometry x="460" y="690" width="300" height="180" as="geometry" />
          </mxCell>
        </object>
        <mxCell id="HLCw0T0IoHX27H9TgyoR-16" style="edgeStyle=orthogonalEdgeStyle;rounded=0;orthogonalLoop=1;jettySize=auto;html=1;exitX=0.5;exitY=1;exitDx=0;exitDy=0;exitPerimeter=0;entryX=0.5;entryY=0;entryDx=0;entryDy=0;entryPerimeter=0;" edge="1" parent="HLCw0T0IoHX27H9TgyoR-1" source="HLCw0T0IoHX27H9TgyoR-2" target="HLCw0T0IoHX27H9TgyoR-7">
          <mxGeometry relative="1" as="geometry" />
        </mxCell>
        <mxCell id="HLCw0T0IoHX27H9TgyoR-17" value="Gestiona Servicios&amp;nbsp;&lt;div&gt;bancarios&lt;/div&gt;" style="edgeLabel;html=1;align=center;verticalAlign=middle;resizable=0;points=[];" vertex="1" connectable="0" parent="HLCw0T0IoHX27H9TgyoR-16">
          <mxGeometry x="-0.6222" y="2" relative="1" as="geometry">
            <mxPoint x="58" y="3" as="offset" />
          </mxGeometry>
        </mxCell>
        <mxCell id="HLCw0T0IoHX27H9TgyoR-18" style="edgeStyle=orthogonalEdgeStyle;rounded=0;orthogonalLoop=1;jettySize=auto;html=1;exitX=0.5;exitY=1;exitDx=0;exitDy=0;exitPerimeter=0;entryX=0.5;entryY=0;entryDx=0;entryDy=0;entryPerimeter=0;" edge="1" parent="HLCw0T0IoHX27H9TgyoR-1" source="HLCw0T0IoHX27H9TgyoR-7" target="HLCw0T0IoHX27H9TgyoR-11">
          <mxGeometry relative="1" as="geometry" />
        </mxCell>
        <mxCell id="EqWEm2qC0kf4mkirFOhE-0" value="Persiste data transaccional" style="edgeLabel;html=1;align=center;verticalAlign=middle;resizable=0;points=[];" vertex="1" connectable="0" parent="HLCw0T0IoHX27H9TgyoR-18">
          <mxGeometry x="-0.1" relative="1" as="geometry">
            <mxPoint as="offset" />
          </mxGeometry>
        </mxCell>
        <mxCell id="HLCw0T0IoHX27H9TgyoR-19" style="edgeStyle=orthogonalEdgeStyle;rounded=0;orthogonalLoop=1;jettySize=auto;html=1;exitX=0.5;exitY=1;exitDx=0;exitDy=0;exitPerimeter=0;entryX=0;entryY=0.5;entryDx=0;entryDy=0;entryPerimeter=0;" edge="1" parent="HLCw0T0IoHX27H9TgyoR-1" source="HLCw0T0IoHX27H9TgyoR-4" target="HLCw0T0IoHX27H9TgyoR-7">
          <mxGeometry relative="1" as="geometry" />
        </mxCell>
        <mxCell id="HLCw0T0IoHX27H9TgyoR-20" value="Solicitar servicios,&amp;nbsp;&lt;div&gt;productos y asesores&amp;nbsp;&lt;/div&gt;" style="edgeLabel;html=1;align=center;verticalAlign=middle;resizable=0;points=[];" vertex="1" connectable="0" parent="HLCw0T0IoHX27H9TgyoR-19">
          <mxGeometry x="-0.8632" y="-1" relative="1" as="geometry">
            <mxPoint x="61" y="-1" as="offset" />
          </mxGeometry>
        </mxCell>
        <mxCell id="HLCw0T0IoHX27H9TgyoR-21" value="Gestiona Servicios&amp;nbsp;&lt;div&gt;bancarios&lt;/div&gt;" style="edgeLabel;html=1;align=center;verticalAlign=middle;resizable=0;points=[];" vertex="1" connectable="0" parent="HLCw0T0IoHX27H9TgyoR-1">
          <mxGeometry x="110" y="265.5" as="geometry" />
        </mxCell>
        <mxCell id="HLCw0T0IoHX27H9TgyoR-22" style="edgeStyle=orthogonalEdgeStyle;rounded=0;orthogonalLoop=1;jettySize=auto;html=1;entryX=0;entryY=0.5;entryDx=0;entryDy=0;entryPerimeter=0;exitX=0.996;exitY=0.397;exitDx=0;exitDy=0;exitPerimeter=0;" edge="1" parent="HLCw0T0IoHX27H9TgyoR-1" source="HLCw0T0IoHX27H9TgyoR-7" target="HLCw0T0IoHX27H9TgyoR-8">
          <mxGeometry relative="1" as="geometry">
            <Array as="points">
              <mxPoint x="230" y="398" />
              <mxPoint x="230" y="240" />
            </Array>
          </mxGeometry>
        </mxCell>
        <mxCell id="HLCw0T0IoHX27H9TgyoR-23" value="&lt;blockquote style=&quot;margin: 0 0 0 40px; border: none; padding: 0px;&quot;&gt;Gestiona pagos&lt;/blockquote&gt;" style="edgeLabel;html=1;align=center;verticalAlign=middle;resizable=0;points=[];" vertex="1" connectable="0" parent="HLCw0T0IoHX27H9TgyoR-22">
          <mxGeometry x="0.5061" y="1" relative="1" as="geometry">
            <mxPoint x="-21" y="-9" as="offset" />
          </mxGeometry>
        </mxCell>
        <mxCell id="HLCw0T0IoHX27H9TgyoR-24" style="edgeStyle=orthogonalEdgeStyle;rounded=0;orthogonalLoop=1;jettySize=auto;html=1;exitX=1;exitY=0.5;exitDx=0;exitDy=0;exitPerimeter=0;entryX=0;entryY=0.5;entryDx=0;entryDy=0;entryPerimeter=0;" edge="1" parent="HLCw0T0IoHX27H9TgyoR-1" source="HLCw0T0IoHX27H9TgyoR-7" target="HLCw0T0IoHX27H9TgyoR-9">
          <mxGeometry relative="1" as="geometry" />
        </mxCell>
        <mxCell id="HLCw0T0IoHX27H9TgyoR-25" value="Valida datacredito" style="edgeLabel;html=1;align=center;verticalAlign=middle;resizable=0;points=[];" vertex="1" connectable="0" parent="HLCw0T0IoHX27H9TgyoR-24">
          <mxGeometry x="0.023" y="1" relative="1" as="geometry">
            <mxPoint x="52" y="12" as="offset" />
          </mxGeometry>
        </mxCell>
      </root>
    </mxGraphModel>
  </diagram>
  <diagram name="CONTENEDORES" id="phTQub0KL0Ps5Sp46oV7">
    <mxGraphModel dx="2111" dy="759" grid="1" gridSize="10" guides="1" tooltips="1" connect="1" arrows="1" fold="1" page="1" pageScale="1" pageWidth="850" pageHeight="1100" math="0" shadow="0">
      <root>
        <mxCell id="ZyfB8_X4lQmwKsvrV7ci-0" />
        <mxCell id="ZyfB8_X4lQmwKsvrV7ci-1" parent="ZyfB8_X4lQmwKsvrV7ci-0" />
        <object placeholders="1" c4Name="Empleado Banco" c4Type="Person" c4Description="Empleado Banco" label="&lt;font style=&quot;font-size: 16px&quot;&gt;&lt;b&gt;%c4Name%&lt;/b&gt;&lt;/font&gt;&lt;div&gt;[%c4Type%]&lt;/div&gt;&lt;br&gt;&lt;div&gt;&lt;font style=&quot;font-size: 11px&quot;&gt;&lt;font color=&quot;#cccccc&quot;&gt;%c4Description%&lt;/font&gt;&lt;/div&gt;" id="ZyfB8_X4lQmwKsvrV7ci-2">
          <mxCell style="html=1;fontSize=11;dashed=0;whiteSpace=wrap;fillColor=#dae8fc;strokeColor=#6c8ebf;shape=mxgraph.c4.person2;align=center;metaEdit=1;points=[[0.5,0,0],[1,0.5,0],[1,0.75,0],[0.75,1,0],[0.5,1,0],[0.25,1,0],[0,0.75,0],[0,0.5,0]];resizable=0;" vertex="1" parent="ZyfB8_X4lQmwKsvrV7ci-1">
            <mxGeometry x="-60" y="150" width="200" height="180" as="geometry" />
          </mxCell>
        </object>
        <object placeholders="1" c4Name="Cliente Banco" c4Type="Person" c4Description="Cliente Banco" label="&lt;font style=&quot;font-size: 16px&quot;&gt;&lt;b&gt;%c4Name%&lt;/b&gt;&lt;/font&gt;&lt;div&gt;[%c4Type%]&lt;/div&gt;&lt;br&gt;&lt;div&gt;&lt;font style=&quot;font-size: 11px&quot;&gt;&lt;font color=&quot;#cccccc&quot;&gt;%c4Description%&lt;/font&gt;&lt;/div&gt;" id="ZyfB8_X4lQmwKsvrV7ci-4">
          <mxCell style="html=1;fontSize=11;dashed=0;whiteSpace=wrap;shape=mxgraph.c4.person2;align=center;metaEdit=1;points=[[0.5,0,0],[1,0.5,0],[1,0.75,0],[0.75,1,0],[0.5,1,0],[0.25,1,0],[0,0.75,0],[0,0.5,0]];resizable=0;" vertex="1" parent="ZyfB8_X4lQmwKsvrV7ci-1">
            <mxGeometry x="-450" y="150" width="200" height="180" as="geometry" />
          </mxCell>
        </object>
        <object placeholders="1" c4Name="Plataforma de servicios de pago (PSE)" c4Type="Software System" c4Description="Plataforma de servicios de pago (PSE)" label="&lt;font style=&quot;font-size: 16px&quot;&gt;&lt;b&gt;%c4Name%&lt;/b&gt;&lt;/font&gt;&lt;div&gt;[%c4Type%]&lt;/div&gt;&lt;br&gt;&lt;div&gt;&lt;font style=&quot;font-size: 11px&quot;&gt;&lt;font color=&quot;#cccccc&quot;&gt;%c4Description%&lt;/font&gt;&lt;/div&gt;" id="ZyfB8_X4lQmwKsvrV7ci-8">
          <mxCell style="rounded=1;whiteSpace=wrap;html=1;labelBackgroundColor=none;align=center;arcSize=10;metaEdit=1;resizable=0;points=[[0.25,0,0],[0.5,0,0],[0.75,0,0],[1,0.25,0],[1,0.5,0],[1,0.75,0],[0.75,1,0],[0.5,1,0],[0.25,1,0],[0,0.75,0],[0,0.5,0],[0,0.25,0]];fillColor=#808080;strokeColor=#666666;fontColor=#333333;" vertex="1" parent="ZyfB8_X4lQmwKsvrV7ci-1">
            <mxGeometry x="650" y="560" width="240" height="120" as="geometry" />
          </mxCell>
        </object>
        <object placeholders="1" c4Name="Sistema de gestion de riesgos (Expirian)" c4Type="Software System" c4Description="Sistema de gestion de riesgos (Expirian)" label="&lt;font style=&quot;font-size: 16px&quot;&gt;&lt;b&gt;%c4Name%&lt;/b&gt;&lt;/font&gt;&lt;div&gt;[%c4Type%]&lt;/div&gt;&lt;br&gt;&lt;div&gt;&lt;font style=&quot;font-size: 11px&quot;&gt;&lt;font color=&quot;#cccccc&quot;&gt;%c4Description%&lt;/font&gt;&lt;/div&gt;" id="ZyfB8_X4lQmwKsvrV7ci-9">
          <mxCell style="rounded=1;whiteSpace=wrap;html=1;labelBackgroundColor=none;align=center;arcSize=10;metaEdit=1;resizable=0;points=[[0.25,0,0],[0.5,0,0],[0.75,0,0],[1,0.25,0],[1,0.5,0],[1,0.75,0],[0.75,1,0],[0.5,1,0],[0.25,1,0],[0,0.75,0],[0,0.5,0],[0,0.25,0]];fillColor=#808080;strokeColor=#666666;fontColor=#333333;" vertex="1" parent="ZyfB8_X4lQmwKsvrV7ci-1">
            <mxGeometry x="640" y="800" width="240" height="120" as="geometry" />
          </mxCell>
        </object>
        <object placeholders="1" c4Name="Sistema de prevención de fraudes" c4Type="Software System" c4Description="Sistema de prevención de fraudes" label="&lt;font style=&quot;font-size: 16px&quot;&gt;&lt;b&gt;%c4Name%&lt;/b&gt;&lt;/font&gt;&lt;div&gt;[%c4Type%]&lt;/div&gt;&lt;br&gt;&lt;div&gt;&lt;font style=&quot;font-size: 11px&quot;&gt;&lt;font color=&quot;#cccccc&quot;&gt;%c4Description%&lt;/font&gt;&lt;/div&gt;" id="ZyfB8_X4lQmwKsvrV7ci-10">
          <mxCell style="rounded=1;whiteSpace=wrap;html=1;labelBackgroundColor=none;align=center;arcSize=10;metaEdit=1;resizable=0;points=[[0.25,0,0],[0.5,0,0],[0.75,0,0],[1,0.25,0],[1,0.5,0],[1,0.75,0],[0.75,1,0],[0.5,1,0],[0.25,1,0],[0,0.75,0],[0,0.5,0],[0,0.25,0]];fillColor=#808080;strokeColor=#666666;fontColor=#333333;" vertex="1" parent="ZyfB8_X4lQmwKsvrV7ci-1">
            <mxGeometry x="640" y="1080" width="240" height="120" as="geometry" />
          </mxCell>
        </object>
        <object placeholders="1" c4Name="Container name" c4Type="Container" c4Technology="e.g. Oracle Database 12" c4Description="Description of storage type container role/responsibility." label="&lt;font style=&quot;font-size: 16px&quot;&gt;&lt;b&gt;%c4Name%&lt;/b&gt;&lt;/font&gt;&lt;div&gt;[%c4Type%:&amp;nbsp;%c4Technology%]&lt;/div&gt;&lt;br&gt;&lt;div&gt;&lt;font style=&quot;font-size: 11px&quot;&gt;&lt;font color=&quot;#E6E6E6&quot;&gt;%c4Description%&lt;/font&gt;&lt;/div&gt;" id="ZyfB8_X4lQmwKsvrV7ci-11">
          <mxCell style="shape=cylinder3;size=15;whiteSpace=wrap;html=1;boundedLbl=1;rounded=0;labelBackgroundColor=none;fillColor=#23A2D9;fontSize=12;fontColor=#ffffff;align=center;strokeColor=#0E7DAD;metaEdit=1;points=[[0.5,0,0],[1,0.25,0],[1,0.5,0],[1,0.75,0],[0.5,1,0],[0,0.75,0],[0,0.5,0],[0,0.25,0]];resizable=0;" vertex="1" parent="ZyfB8_X4lQmwKsvrV7ci-1">
            <mxGeometry x="-80" y="1080" width="240" height="120" as="geometry" />
          </mxCell>
        </object>
        <object placeholders="1" c4Name="Sistema Externo" c4Type="SystemScopeBoundary" c4Application="Sistema Externo" label="&lt;font style=&quot;font-size: 16px&quot;&gt;&lt;b&gt;&lt;div style=&quot;text-align: left&quot;&gt;%c4Name%&lt;/div&gt;&lt;/b&gt;&lt;/font&gt;&lt;div style=&quot;text-align: left&quot;&gt;[%c4Application%]&lt;/div&gt;" id="ZyfB8_X4lQmwKsvrV7ci-13">
          <mxCell style="rounded=1;fontSize=11;whiteSpace=wrap;html=1;dashed=1;arcSize=20;fillColor=none;strokeColor=#B9E0A5;fontColor=#333333;labelBackgroundColor=none;align=left;verticalAlign=bottom;labelBorderColor=none;spacingTop=0;spacing=10;dashPattern=8 4;metaEdit=1;rotatable=0;perimeter=rectanglePerimeter;noLabel=0;labelPadding=0;allowArrows=0;connectable=0;expand=0;recursiveResize=0;editable=1;pointerEvents=0;absoluteArcSize=1;points=[[0.25,0,0],[0.5,0,0],[0.75,0,0],[1,0.25,0],[1,0.5,0],[1,0.75,0],[0.75,1,0],[0.5,1,0],[0.25,1,0],[0,0.75,0],[0,0.5,0],[0,0.25,0]];" vertex="1" parent="ZyfB8_X4lQmwKsvrV7ci-1">
            <mxGeometry x="610" y="780" width="300" height="190" as="geometry" />
          </mxCell>
        </object>
        <object placeholders="1" c4Name="Sistema Externo" c4Type="SystemScopeBoundary" c4Application="Sistema Externo" label="&lt;font style=&quot;font-size: 16px&quot;&gt;&lt;b&gt;&lt;div style=&quot;text-align: left&quot;&gt;%c4Name%&lt;/div&gt;&lt;/b&gt;&lt;/font&gt;&lt;div style=&quot;text-align: left&quot;&gt;[%c4Application%]&lt;/div&gt;" id="ZyfB8_X4lQmwKsvrV7ci-14">
          <mxCell style="rounded=1;fontSize=11;whiteSpace=wrap;html=1;dashed=1;arcSize=20;fillColor=none;strokeColor=#B9E0A5;fontColor=#333333;labelBackgroundColor=none;align=left;verticalAlign=bottom;labelBorderColor=none;spacingTop=0;spacing=10;dashPattern=8 4;metaEdit=1;rotatable=0;perimeter=rectanglePerimeter;noLabel=0;labelPadding=0;allowArrows=0;connectable=0;expand=0;recursiveResize=0;editable=1;pointerEvents=0;absoluteArcSize=1;points=[[0.25,0,0],[0.5,0,0],[0.75,0,0],[1,0.25,0],[1,0.5,0],[1,0.75,0],[0.75,1,0],[0.5,1,0],[0.25,1,0],[0,0.75,0],[0,0.5,0],[0,0.25,0]];" vertex="1" parent="ZyfB8_X4lQmwKsvrV7ci-1">
            <mxGeometry x="610" y="540" width="320" height="190" as="geometry" />
          </mxCell>
        </object>
        <object placeholders="1" c4Name="Sistema Externo" c4Type="SystemScopeBoundary" c4Application="Sistema Externo" label="&lt;font style=&quot;font-size: 16px&quot;&gt;&lt;b&gt;&lt;div style=&quot;text-align: left&quot;&gt;%c4Name%&lt;/div&gt;&lt;/b&gt;&lt;/font&gt;&lt;div style=&quot;text-align: left&quot;&gt;[%c4Application%]&lt;/div&gt;" id="ZyfB8_X4lQmwKsvrV7ci-15">
          <mxCell style="rounded=1;fontSize=11;whiteSpace=wrap;html=1;dashed=1;arcSize=20;fillColor=none;strokeColor=#B9E0A5;fontColor=#333333;labelBackgroundColor=none;align=left;verticalAlign=bottom;labelBorderColor=none;spacingTop=0;spacing=10;dashPattern=8 4;metaEdit=1;rotatable=0;perimeter=rectanglePerimeter;noLabel=0;labelPadding=0;allowArrows=0;connectable=0;expand=0;recursiveResize=0;editable=1;pointerEvents=0;absoluteArcSize=1;points=[[0.25,0,0],[0.5,0,0],[0.75,0,0],[1,0.25,0],[1,0.5,0],[1,0.75,0],[0.75,1,0],[0.5,1,0],[0.25,1,0],[0,0.75,0],[0,0.5,0],[0,0.25,0]];" vertex="1" parent="ZyfB8_X4lQmwKsvrV7ci-1">
            <mxGeometry x="610" y="1070" width="300" height="180" as="geometry" />
          </mxCell>
        </object>
        <mxCell id="ZyfB8_X4lQmwKsvrV7ci-20" style="edgeStyle=orthogonalEdgeStyle;rounded=0;orthogonalLoop=1;jettySize=auto;html=1;exitX=0.5;exitY=1;exitDx=0;exitDy=0;exitPerimeter=0;entryX=0;entryY=0.5;entryDx=0;entryDy=0;entryPerimeter=0;" edge="1" parent="ZyfB8_X4lQmwKsvrV7ci-1" source="ZyfB8_X4lQmwKsvrV7ci-4" target="BNpPt9c9W-lZz-y5jZj7-0">
          <mxGeometry relative="1" as="geometry">
            <mxPoint x="-80" y="340" as="targetPoint" />
          </mxGeometry>
        </mxCell>
        <mxCell id="ZyfB8_X4lQmwKsvrV7ci-21" value="Solicitar servicios,&amp;nbsp;&lt;div&gt;productos y asesores&amp;nbsp;&lt;/div&gt;" style="edgeLabel;html=1;align=center;verticalAlign=middle;resizable=0;points=[];" vertex="1" connectable="0" parent="ZyfB8_X4lQmwKsvrV7ci-20">
          <mxGeometry x="-0.8632" y="-1" relative="1" as="geometry">
            <mxPoint x="61" y="-1" as="offset" />
          </mxGeometry>
        </mxCell>
        <object placeholders="1" c4Name="Capa de presentación" c4Type="ContainerScopeBoundary" c4Application="Container name" label="&lt;font style=&quot;font-size: 16px&quot;&gt;&lt;b&gt;&lt;div style=&quot;text-align: left&quot;&gt;%c4Name%&lt;/div&gt;&lt;/b&gt;&lt;/font&gt;&lt;div style=&quot;text-align: left&quot;&gt;[%c4Application%]&lt;/div&gt;" id="3AN33iV4dfshVy1R5WHA-0">
          <mxCell style="rounded=1;fontSize=11;whiteSpace=wrap;html=1;dashed=1;arcSize=20;fillColor=none;strokeColor=#B9E0A5;fontColor=#333333;labelBackgroundColor=none;align=left;verticalAlign=bottom;labelBorderColor=none;spacingTop=0;spacing=10;dashPattern=8 4;metaEdit=1;rotatable=0;perimeter=rectanglePerimeter;noLabel=0;labelPadding=0;allowArrows=0;connectable=0;expand=0;recursiveResize=0;editable=1;pointerEvents=0;absoluteArcSize=1;points=[[0.25,0,0],[0.5,0,0],[0.75,0,0],[1,0.25,0],[1,0.5,0],[1,0.75,0],[0.75,1,0],[0.5,1,0],[0.25,1,0],[0,0.75,0],[0,0.5,0],[0,0.25,0]];" vertex="1" parent="ZyfB8_X4lQmwKsvrV7ci-1">
            <mxGeometry x="-100" y="520" width="280" height="190" as="geometry" />
          </mxCell>
        </object>
        <object placeholders="1" c4Name="Capa presentación" c4Type="Software System" c4Description="Core bancario digital" label="&lt;font style=&quot;font-size: 16px&quot;&gt;&lt;b&gt;%c4Name%&lt;/b&gt;&lt;/font&gt;&lt;div&gt;[%c4Type%]&lt;/div&gt;&lt;br&gt;&lt;div&gt;&lt;font style=&quot;font-size: 11px&quot;&gt;&lt;font color=&quot;#cccccc&quot;&gt;%c4Description%&lt;/font&gt;&lt;/div&gt;" id="BNpPt9c9W-lZz-y5jZj7-0">
          <mxCell style="rounded=1;whiteSpace=wrap;html=1;labelBackgroundColor=none;align=center;arcSize=10;metaEdit=1;resizable=0;points=[[0.25,0,0],[0.5,0,0],[0.75,0,0],[1,0.25,0],[1,0.5,0],[1,0.75,0],[0.75,1,0],[0.5,1,0],[0.25,1,0],[0,0.75,0],[0,0.5,0],[0,0.25,0]];fillColor=#dae8fc;strokeColor=#6c8ebf;" vertex="1" parent="ZyfB8_X4lQmwKsvrV7ci-1">
            <mxGeometry x="-80" y="540" width="240" height="120" as="geometry" />
          </mxCell>
        </object>
        <object placeholders="1" c4Name="Capa back" c4Type="Software System" c4Description="Core bancario digital" label="&lt;font style=&quot;font-size: 16px&quot;&gt;&lt;b&gt;%c4Name%&lt;/b&gt;&lt;/font&gt;&lt;div&gt;[%c4Type%]&lt;/div&gt;&lt;br&gt;&lt;div&gt;&lt;font style=&quot;font-size: 11px&quot;&gt;&lt;font color=&quot;#cccccc&quot;&gt;%c4Description%&lt;/font&gt;&lt;/div&gt;" id="BNpPt9c9W-lZz-y5jZj7-1">
          <mxCell style="rounded=1;whiteSpace=wrap;html=1;labelBackgroundColor=none;align=center;arcSize=10;metaEdit=1;resizable=0;points=[[0.25,0,0],[0.5,0,0],[0.75,0,0],[1,0.25,0],[1,0.5,0],[1,0.75,0],[0.75,1,0],[0.5,1,0],[0.25,1,0],[0,0.75,0],[0,0.5,0],[0,0.25,0]];fillColor=#dae8fc;strokeColor=#6c8ebf;" vertex="1" parent="ZyfB8_X4lQmwKsvrV7ci-1">
            <mxGeometry x="-80" y="810" width="240" height="120" as="geometry" />
          </mxCell>
        </object>
        <object placeholders="1" c4Name="Persistencia de datos" c4Type="ContainerScopeBoundary" c4Application="Container name" label="&lt;font style=&quot;font-size: 16px&quot;&gt;&lt;b&gt;&lt;div style=&quot;text-align: left&quot;&gt;%c4Name%&lt;/div&gt;&lt;/b&gt;&lt;/font&gt;&lt;div style=&quot;text-align: left&quot;&gt;[%c4Application%]&lt;/div&gt;" id="BNpPt9c9W-lZz-y5jZj7-2">
          <mxCell style="rounded=1;fontSize=11;whiteSpace=wrap;html=1;dashed=1;arcSize=20;fillColor=none;strokeColor=#B9E0A5;fontColor=#333333;labelBackgroundColor=none;align=left;verticalAlign=bottom;labelBorderColor=none;spacingTop=0;spacing=10;dashPattern=8 4;metaEdit=1;rotatable=0;perimeter=rectanglePerimeter;noLabel=0;labelPadding=0;allowArrows=0;connectable=0;expand=0;recursiveResize=0;editable=1;pointerEvents=0;absoluteArcSize=1;points=[[0.25,0,0],[0.5,0,0],[0.75,0,0],[1,0.25,0],[1,0.5,0],[1,0.75,0],[0.75,1,0],[0.5,1,0],[0.25,1,0],[0,0.75,0],[0,0.5,0],[0,0.25,0]];" vertex="1" parent="ZyfB8_X4lQmwKsvrV7ci-1">
            <mxGeometry x="-100" y="1060" width="280" height="190" as="geometry" />
          </mxCell>
        </object>
        <object placeholders="1" c4Name="Capa de servicios" c4Type="ContainerScopeBoundary" c4Application="Container name" label="&lt;font style=&quot;font-size: 16px&quot;&gt;&lt;b&gt;&lt;div style=&quot;text-align: left&quot;&gt;%c4Name%&lt;/div&gt;&lt;/b&gt;&lt;/font&gt;&lt;div style=&quot;text-align: left&quot;&gt;[%c4Application%]&lt;/div&gt;" id="BNpPt9c9W-lZz-y5jZj7-3">
          <mxCell style="rounded=1;fontSize=11;whiteSpace=wrap;html=1;dashed=1;arcSize=20;fillColor=none;strokeColor=#B9E0A5;fontColor=#333333;labelBackgroundColor=none;align=left;verticalAlign=bottom;labelBorderColor=none;spacingTop=0;spacing=10;dashPattern=8 4;metaEdit=1;rotatable=0;perimeter=rectanglePerimeter;noLabel=0;labelPadding=0;allowArrows=0;connectable=0;expand=0;recursiveResize=0;editable=1;pointerEvents=0;absoluteArcSize=1;points=[[0.25,0,0],[0.5,0,0],[0.75,0,0],[1,0.25,0],[1,0.5,0],[1,0.75,0],[0.75,1,0],[0.5,1,0],[0.25,1,0],[0,0.75,0],[0,0.5,0],[0,0.25,0]];" vertex="1" parent="ZyfB8_X4lQmwKsvrV7ci-1">
            <mxGeometry x="-90" y="790" width="270" height="190" as="geometry" />
          </mxCell>
        </object>
        <object placeholders="1" c4Name="Sistema bancario" c4Type="SystemScopeBoundary" c4Application="Software System" label="&lt;font style=&quot;font-size: 16px&quot;&gt;&lt;b&gt;&lt;div style=&quot;text-align: left&quot;&gt;%c4Name%&lt;/div&gt;&lt;/b&gt;&lt;/font&gt;&lt;div style=&quot;text-align: left&quot;&gt;[%c4Application%]&lt;/div&gt;" id="BNpPt9c9W-lZz-y5jZj7-5">
          <mxCell style="rounded=1;fontSize=11;whiteSpace=wrap;html=1;dashed=1;arcSize=20;fillColor=none;strokeColor=#666666;fontColor=#333333;labelBackgroundColor=none;align=left;verticalAlign=bottom;labelBorderColor=none;spacingTop=0;spacing=10;dashPattern=8 4;metaEdit=1;rotatable=0;perimeter=rectanglePerimeter;noLabel=0;labelPadding=0;allowArrows=0;connectable=0;expand=0;recursiveResize=0;editable=1;pointerEvents=0;absoluteArcSize=1;points=[[0.25,0,0],[0.5,0,0],[0.75,0,0],[1,0.25,0],[1,0.5,0],[1,0.75,0],[0.75,1,0],[0.5,1,0],[0.25,1,0],[0,0.75,0],[0,0.5,0],[0,0.25,0]];" vertex="1" parent="ZyfB8_X4lQmwKsvrV7ci-1">
            <mxGeometry x="-170" y="470" width="430" height="840" as="geometry" />
          </mxCell>
        </object>
        <object placeholders="1" c4Name="Sistemas externos" c4Type="SystemScopeBoundary" c4Application="Software System" label="&lt;font style=&quot;font-size: 16px&quot;&gt;&lt;b&gt;&lt;div style=&quot;text-align: left&quot;&gt;%c4Name%&lt;/div&gt;&lt;/b&gt;&lt;/font&gt;&lt;div style=&quot;text-align: left&quot;&gt;[%c4Application%]&lt;/div&gt;" id="BNpPt9c9W-lZz-y5jZj7-6">
          <mxCell style="rounded=1;fontSize=11;whiteSpace=wrap;html=1;dashed=1;arcSize=20;fillColor=none;strokeColor=#666666;fontColor=#333333;labelBackgroundColor=none;align=left;verticalAlign=bottom;labelBorderColor=none;spacingTop=0;spacing=10;dashPattern=8 4;metaEdit=1;rotatable=0;perimeter=rectanglePerimeter;noLabel=0;labelPadding=0;allowArrows=0;connectable=0;expand=0;recursiveResize=0;editable=1;pointerEvents=0;absoluteArcSize=1;points=[[0.25,0,0],[0.5,0,0],[0.75,0,0],[1,0.25,0],[1,0.5,0],[1,0.75,0],[0.75,1,0],[0.5,1,0],[0.25,1,0],[0,0.75,0],[0,0.5,0],[0,0.25,0]];" vertex="1" parent="ZyfB8_X4lQmwKsvrV7ci-1">
            <mxGeometry x="560" y="500" width="400" height="810" as="geometry" />
          </mxCell>
        </object>
        <mxCell id="BNpPt9c9W-lZz-y5jZj7-7" style="edgeStyle=orthogonalEdgeStyle;rounded=0;orthogonalLoop=1;jettySize=auto;html=1;exitX=0.5;exitY=1;exitDx=0;exitDy=0;exitPerimeter=0;entryX=0.5;entryY=0;entryDx=0;entryDy=0;entryPerimeter=0;" edge="1" parent="ZyfB8_X4lQmwKsvrV7ci-1" source="BNpPt9c9W-lZz-y5jZj7-1" target="ZyfB8_X4lQmwKsvrV7ci-11">
          <mxGeometry relative="1" as="geometry" />
        </mxCell>
        <mxCell id="BNpPt9c9W-lZz-y5jZj7-8" value="Persiste data tradicional" style="edgeLabel;html=1;align=center;verticalAlign=middle;resizable=0;points=[];" vertex="1" connectable="0" parent="BNpPt9c9W-lZz-y5jZj7-7">
          <mxGeometry x="0.1333" y="2" relative="1" as="geometry">
            <mxPoint x="68" as="offset" />
          </mxGeometry>
        </mxCell>
        <mxCell id="BNpPt9c9W-lZz-y5jZj7-10" style="edgeStyle=orthogonalEdgeStyle;rounded=0;orthogonalLoop=1;jettySize=auto;html=1;exitX=0.5;exitY=1;exitDx=0;exitDy=0;exitPerimeter=0;entryX=0.5;entryY=0;entryDx=0;entryDy=0;entryPerimeter=0;" edge="1" parent="ZyfB8_X4lQmwKsvrV7ci-1" source="BNpPt9c9W-lZz-y5jZj7-0" target="BNpPt9c9W-lZz-y5jZj7-1">
          <mxGeometry relative="1" as="geometry" />
        </mxCell>
        <mxCell id="BNpPt9c9W-lZz-y5jZj7-11" value="Valida data de negocio" style="edgeLabel;html=1;align=center;verticalAlign=middle;resizable=0;points=[];" vertex="1" connectable="0" parent="BNpPt9c9W-lZz-y5jZj7-10">
          <mxGeometry x="0.0667" y="-4" relative="1" as="geometry">
            <mxPoint x="64" as="offset" />
          </mxGeometry>
        </mxCell>
        <mxCell id="BNpPt9c9W-lZz-y5jZj7-13" value="Gestiona servicios&lt;div&gt;bancarios&lt;/div&gt;" style="text;html=1;align=center;verticalAlign=middle;resizable=0;points=[];autosize=1;strokeColor=none;fillColor=none;" vertex="1" parent="ZyfB8_X4lQmwKsvrV7ci-1">
          <mxGeometry x="50" y="480" width="120" height="40" as="geometry" />
        </mxCell>
        <mxCell id="BNpPt9c9W-lZz-y5jZj7-14" style="edgeStyle=orthogonalEdgeStyle;rounded=0;orthogonalLoop=1;jettySize=auto;html=1;entryX=0;entryY=0.5;entryDx=0;entryDy=0;entryPerimeter=0;" edge="1" parent="ZyfB8_X4lQmwKsvrV7ci-1" target="ZyfB8_X4lQmwKsvrV7ci-9">
          <mxGeometry relative="1" as="geometry">
            <mxPoint x="160" y="860" as="sourcePoint" />
          </mxGeometry>
        </mxCell>
        <mxCell id="BNpPt9c9W-lZz-y5jZj7-18" value="Valida datacredito" style="edgeLabel;html=1;align=center;verticalAlign=middle;resizable=0;points=[];" vertex="1" connectable="0" parent="BNpPt9c9W-lZz-y5jZj7-14">
          <mxGeometry x="0.2286" y="-1" relative="1" as="geometry">
            <mxPoint x="5" y="-11" as="offset" />
          </mxGeometry>
        </mxCell>
        <mxCell id="BNpPt9c9W-lZz-y5jZj7-15" style="edgeStyle=orthogonalEdgeStyle;rounded=0;orthogonalLoop=1;jettySize=auto;html=1;exitX=1;exitY=0.5;exitDx=0;exitDy=0;exitPerimeter=0;entryX=0;entryY=0.5;entryDx=0;entryDy=0;entryPerimeter=0;" edge="1" parent="ZyfB8_X4lQmwKsvrV7ci-1" source="BNpPt9c9W-lZz-y5jZj7-1" target="ZyfB8_X4lQmwKsvrV7ci-10">
          <mxGeometry relative="1" as="geometry" />
        </mxCell>
        <mxCell id="EpSolh_iEsJ7VKxSKAz4-0" value="Valida fraude (SARLAFT)" style="edgeLabel;html=1;align=center;verticalAlign=middle;resizable=0;points=[];" vertex="1" connectable="0" parent="BNpPt9c9W-lZz-y5jZj7-15">
          <mxGeometry x="0.4838" y="2" relative="1" as="geometry">
            <mxPoint x="24" y="-8" as="offset" />
          </mxGeometry>
        </mxCell>
        <mxCell id="BNpPt9c9W-lZz-y5jZj7-16" style="edgeStyle=orthogonalEdgeStyle;rounded=0;orthogonalLoop=1;jettySize=auto;html=1;entryX=0;entryY=0.5;entryDx=0;entryDy=0;entryPerimeter=0;exitX=1.003;exitY=0.368;exitDx=0;exitDy=0;exitPerimeter=0;" edge="1" parent="ZyfB8_X4lQmwKsvrV7ci-1" source="BNpPt9c9W-lZz-y5jZj7-1" target="ZyfB8_X4lQmwKsvrV7ci-8">
          <mxGeometry relative="1" as="geometry">
            <mxPoint x="200" y="840" as="sourcePoint" />
            <Array as="points">
              <mxPoint x="400" y="854" />
              <mxPoint x="400" y="620" />
            </Array>
          </mxGeometry>
        </mxCell>
        <mxCell id="BNpPt9c9W-lZz-y5jZj7-17" value="Gestiona pagoos" style="edgeLabel;html=1;align=center;verticalAlign=middle;resizable=0;points=[];" vertex="1" connectable="0" parent="BNpPt9c9W-lZz-y5jZj7-16">
          <mxGeometry x="0.4543" relative="1" as="geometry">
            <mxPoint y="-10" as="offset" />
          </mxGeometry>
        </mxCell>
        <mxCell id="EpSolh_iEsJ7VKxSKAz4-1" style="edgeStyle=orthogonalEdgeStyle;rounded=0;orthogonalLoop=1;jettySize=auto;html=1;exitX=0.5;exitY=1;exitDx=0;exitDy=0;exitPerimeter=0;entryX=0.5;entryY=0;entryDx=0;entryDy=0;entryPerimeter=0;" edge="1" parent="ZyfB8_X4lQmwKsvrV7ci-1" source="ZyfB8_X4lQmwKsvrV7ci-2" target="BNpPt9c9W-lZz-y5jZj7-0">
          <mxGeometry relative="1" as="geometry" />
        </mxCell>
      </root>
    </mxGraphModel>
  </diagram>
  <diagram id="7XWnjPdFT0zpV2rYriM0" name="COMPONENTES">
    <mxGraphModel dx="2033" dy="711" grid="1" gridSize="10" guides="1" tooltips="1" connect="1" arrows="1" fold="1" page="1" pageScale="1" pageWidth="850" pageHeight="1100" math="0" shadow="0">
      <root>
        <mxCell id="0" />
        <mxCell id="1" parent="0" />
        <object placeholders="1" c4Name="Suscripción de prueba de Azure" c4Type="ContainerScopeBoundary" c4Application="Container" label="&lt;font style=&quot;font-size: 16px&quot;&gt;&lt;b&gt;&lt;div style=&quot;text-align: left&quot;&gt;%c4Name%&lt;/div&gt;&lt;/b&gt;&lt;/font&gt;&lt;div style=&quot;text-align: left&quot;&gt;[%c4Application%]&lt;/div&gt;" id="j8BTfWTtLbgxG1cSn5Qa-2">
          <mxCell style="rounded=1;fontSize=11;whiteSpace=wrap;html=1;dashed=1;arcSize=20;fillColor=none;strokeColor=#666666;fontColor=#333333;labelBackgroundColor=none;align=left;verticalAlign=bottom;labelBorderColor=none;spacingTop=0;spacing=10;dashPattern=8 4;metaEdit=1;rotatable=0;perimeter=rectanglePerimeter;noLabel=0;labelPadding=0;allowArrows=0;connectable=0;expand=0;recursiveResize=0;editable=1;pointerEvents=0;absoluteArcSize=1;points=[[0.25,0,0],[0.5,0,0],[0.75,0,0],[1,0.25,0],[1,0.5,0],[1,0.75,0],[0.75,1,0],[0.5,1,0],[0.25,1,0],[0,0.75,0],[0,0.5,0],[0,0.25,0]];" vertex="1" parent="1">
            <mxGeometry x="80" y="30" width="1140" height="520" as="geometry" />
          </mxCell>
        </object>
        <mxCell id="j8BTfWTtLbgxG1cSn5Qa-40" style="edgeStyle=orthogonalEdgeStyle;rounded=0;orthogonalLoop=1;jettySize=auto;html=1;exitX=1;exitY=0.5;exitDx=0;exitDy=0;" edge="1" parent="1" source="j8BTfWTtLbgxG1cSn5Qa-11">
          <mxGeometry relative="1" as="geometry">
            <mxPoint x="600" y="275" as="targetPoint" />
          </mxGeometry>
        </mxCell>
        <mxCell id="j8BTfWTtLbgxG1cSn5Qa-11" value="" style="rounded=0;whiteSpace=wrap;html=1;dashed=1;" vertex="1" parent="1">
          <mxGeometry x="110" y="60" width="440" height="430" as="geometry" />
        </mxCell>
        <mxCell id="j8BTfWTtLbgxG1cSn5Qa-6" value="resource group front" style="text;html=1;align=center;verticalAlign=middle;resizable=0;points=[];autosize=1;strokeColor=none;fillColor=none;fontStyle=1" vertex="1" parent="1">
          <mxGeometry x="151.88" y="450" width="130" height="30" as="geometry" />
        </mxCell>
        <mxCell id="j8BTfWTtLbgxG1cSn5Qa-4" value="" style="image;aspect=fixed;html=1;points=[];align=center;fontSize=12;image=img/lib/azure2/general/Resource_Groups.svg;" vertex="1" parent="1">
          <mxGeometry x="120" y="450" width="31.88" height="30" as="geometry" />
        </mxCell>
        <mxCell id="j8BTfWTtLbgxG1cSn5Qa-12" value="" style="rounded=0;whiteSpace=wrap;html=1;dashed=1;" vertex="1" parent="1">
          <mxGeometry x="730" y="59" width="460" height="430" as="geometry" />
        </mxCell>
        <mxCell id="j8BTfWTtLbgxG1cSn5Qa-13" value="VNET" style="points=[[0,0],[0.25,0],[0.5,0],[0.75,0],[1,0],[1,0.25],[1,0.5],[1,0.75],[1,1],[0.75,1],[0.5,1],[0.25,1],[0,1],[0,0.75],[0,0.5],[0,0.25]];outlineConnect=0;gradientColor=none;html=1;whiteSpace=wrap;fontSize=12;fontStyle=0;container=1;pointerEvents=0;collapsible=0;recursiveResize=0;shape=mxgraph.aws4.group;grIcon=mxgraph.aws4.group_vpc2;strokeColor=#8C4FFF;fillColor=none;verticalAlign=top;align=left;spacingLeft=30;fontColor=#AAB7B8;dashed=0;" vertex="1" parent="1">
          <mxGeometry x="750" y="79" width="420" height="350" as="geometry" />
        </mxCell>
        <mxCell id="j8BTfWTtLbgxG1cSn5Qa-14" value="resource group front" style="text;html=1;align=center;verticalAlign=middle;resizable=0;points=[];autosize=1;strokeColor=none;fillColor=none;fontStyle=1" vertex="1" parent="1">
          <mxGeometry x="771.88" y="449" width="130" height="30" as="geometry" />
        </mxCell>
        <mxCell id="j8BTfWTtLbgxG1cSn5Qa-15" value="" style="image;aspect=fixed;html=1;points=[];align=center;fontSize=12;image=img/lib/azure2/general/Resource_Groups.svg;" vertex="1" parent="1">
          <mxGeometry x="740" y="449" width="31.88" height="30" as="geometry" />
        </mxCell>
        <mxCell id="j8BTfWTtLbgxG1cSn5Qa-16" value="APP SERVICE&amp;nbsp;&lt;div&gt;CONTENEDOR&lt;/div&gt;" style="image;aspect=fixed;html=1;points=[];align=center;fontSize=12;image=img/lib/azure2/compute/App_Services.svg;" vertex="1" parent="1">
          <mxGeometry x="160" y="210" width="50" height="50" as="geometry" />
        </mxCell>
        <mxCell id="j8BTfWTtLbgxG1cSn5Qa-17" value="&lt;span style=&quot;background-color: rgb(251, 251, 251);&quot;&gt;Sistema&lt;/span&gt;&lt;div style=&quot;background-color: rgb(251, 251, 251);&quot;&gt;gestión de riesgos&lt;/div&gt;" style="image;aspect=fixed;html=1;points=[];align=center;fontSize=12;image=img/lib/azure2/compute/App_Services.svg;" vertex="1" parent="1">
          <mxGeometry x="281.88" y="200" width="40" height="40" as="geometry" />
        </mxCell>
        <mxCell id="j8BTfWTtLbgxG1cSn5Qa-22" value="Plataforma&lt;div&gt;servicios de pago&lt;/div&gt;" style="image;aspect=fixed;html=1;points=[];align=center;fontSize=12;image=img/lib/azure2/compute/App_Services.svg;" vertex="1" parent="1">
          <mxGeometry x="430" y="90" width="40" height="40" as="geometry" />
        </mxCell>
        <mxCell id="j8BTfWTtLbgxG1cSn5Qa-23" value="&lt;span style=&quot;background-color: rgb(251, 251, 251);&quot;&gt;Sistema&lt;/span&gt;&lt;div style=&quot;background-color: rgb(251, 251, 251);&quot;&gt;gestión de riesgos&lt;/div&gt;" style="image;aspect=fixed;html=1;points=[];align=center;fontSize=12;image=img/lib/azure2/compute/App_Services.svg;" vertex="1" parent="1">
          <mxGeometry x="281.88" y="90" width="40" height="40" as="geometry" />
        </mxCell>
        <mxCell id="j8BTfWTtLbgxG1cSn5Qa-24" value="&lt;span style=&quot;background-color: rgb(251, 251, 251);&quot;&gt;Sistema&lt;/span&gt;&lt;div style=&quot;background-color: rgb(251, 251, 251);&quot;&gt;gestión de riesgos&lt;/div&gt;" style="image;aspect=fixed;html=1;points=[];align=center;fontSize=12;image=img/lib/azure2/compute/App_Services.svg;" vertex="1" parent="1">
          <mxGeometry x="425" y="200" width="40" height="40" as="geometry" />
        </mxCell>
        <mxCell id="j8BTfWTtLbgxG1cSn5Qa-25" value="&lt;span style=&quot;background-color: rgb(251, 251, 251);&quot;&gt;Sistema&lt;/span&gt;&lt;div style=&quot;background-color: rgb(251, 251, 251);&quot;&gt;gestión de riesgos&lt;/div&gt;" style="image;aspect=fixed;html=1;points=[];align=center;fontSize=12;image=img/lib/azure2/compute/App_Services.svg;" vertex="1" parent="1">
          <mxGeometry x="350" y="330" width="40" height="40" as="geometry" />
        </mxCell>
        <mxCell id="j8BTfWTtLbgxG1cSn5Qa-26" value="Azure Kubernates&lt;div&gt;Services&lt;/div&gt;" style="image;aspect=fixed;html=1;points=[];align=center;fontSize=12;image=img/lib/azure2/compute/Kubernetes_Services.svg;" vertex="1" parent="1">
          <mxGeometry x="1090" y="89" width="51" height="45" as="geometry" />
        </mxCell>
        <mxCell id="j8BTfWTtLbgxG1cSn5Qa-27" value="" style="aspect=fixed;sketch=0;html=1;dashed=0;whitespace=wrap;verticalLabelPosition=bottom;verticalAlign=top;fillColor=#2875E2;strokeColor=#ffffff;points=[[0.005,0.63,0],[0.1,0.2,0],[0.9,0.2,0],[0.5,0,0],[0.995,0.63,0],[0.72,0.99,0],[0.5,1,0],[0.28,0.99,0]];shape=mxgraph.kubernetes.icon2;prIcon=api" vertex="1" parent="1">
          <mxGeometry x="780" y="195" width="50" height="48" as="geometry" />
        </mxCell>
        <mxCell id="j8BTfWTtLbgxG1cSn5Qa-30" value="" style="image;aspect=fixed;html=1;points=[];align=center;fontSize=12;image=img/lib/azure2/security/Key_Vaults.svg;" vertex="1" parent="1">
          <mxGeometry x="760" y="389" width="32" height="32" as="geometry" />
        </mxCell>
        <mxCell id="j8BTfWTtLbgxG1cSn5Qa-31" value="" style="aspect=fixed;sketch=0;html=1;dashed=0;whitespace=wrap;verticalLabelPosition=bottom;verticalAlign=top;fillColor=#2875E2;strokeColor=#ffffff;points=[[0.005,0.63,0],[0.1,0.2,0],[0.9,0.2,0],[0.5,0,0],[0.995,0.63,0],[0.72,0.99,0],[0.5,1,0],[0.28,0.99,0]];shape=mxgraph.kubernetes.icon2;prIcon=api" vertex="1" parent="1">
          <mxGeometry x="890" y="129" width="50" height="48" as="geometry" />
        </mxCell>
        <mxCell id="j8BTfWTtLbgxG1cSn5Qa-32" value="" style="aspect=fixed;sketch=0;html=1;dashed=0;whitespace=wrap;verticalLabelPosition=bottom;verticalAlign=top;fillColor=#2875E2;strokeColor=#ffffff;points=[[0.005,0.63,0],[0.1,0.2,0],[0.9,0.2,0],[0.5,0,0],[0.995,0.63,0],[0.72,0.99,0],[0.5,1,0],[0.28,0.99,0]];shape=mxgraph.kubernetes.icon2;prIcon=api" vertex="1" parent="1">
          <mxGeometry x="1010" y="195" width="50" height="48" as="geometry" />
        </mxCell>
        <mxCell id="j8BTfWTtLbgxG1cSn5Qa-33" value="" style="aspect=fixed;sketch=0;html=1;dashed=0;whitespace=wrap;verticalLabelPosition=bottom;verticalAlign=top;fillColor=#2875E2;strokeColor=#ffffff;points=[[0.005,0.63,0],[0.1,0.2,0],[0.9,0.2,0],[0.5,0,0],[0.995,0.63,0],[0.72,0.99,0],[0.5,1,0],[0.28,0.99,0]];shape=mxgraph.kubernetes.icon2;prIcon=api" vertex="1" parent="1">
          <mxGeometry x="840" y="321" width="50" height="48" as="geometry" />
        </mxCell>
        <mxCell id="j8BTfWTtLbgxG1cSn5Qa-34" value="" style="aspect=fixed;sketch=0;html=1;dashed=0;whitespace=wrap;verticalLabelPosition=bottom;verticalAlign=top;fillColor=#2875E2;strokeColor=#ffffff;points=[[0.005,0.63,0],[0.1,0.2,0],[0.9,0.2,0],[0.5,0,0],[0.995,0.63,0],[0.72,0.99,0],[0.5,1,0],[0.28,0.99,0]];shape=mxgraph.kubernetes.icon2;prIcon=api" vertex="1" parent="1">
          <mxGeometry x="940" y="299" width="50" height="48" as="geometry" />
        </mxCell>
        <mxCell id="j8BTfWTtLbgxG1cSn5Qa-41" style="edgeStyle=orthogonalEdgeStyle;rounded=0;orthogonalLoop=1;jettySize=auto;html=1;entryX=0;entryY=0.5;entryDx=0;entryDy=0;" edge="1" parent="1" source="j8BTfWTtLbgxG1cSn5Qa-37" target="j8BTfWTtLbgxG1cSn5Qa-12">
          <mxGeometry relative="1" as="geometry" />
        </mxCell>
        <mxCell id="j8BTfWTtLbgxG1cSn5Qa-37" value="Peering" style="sketch=0;outlineConnect=0;fontColor=#232F3E;gradientColor=none;strokeColor=#232F3E;fillColor=#ffffff;dashed=0;verticalLabelPosition=bottom;verticalAlign=top;align=center;html=1;fontSize=12;fontStyle=0;aspect=fixed;shape=mxgraph.aws4.resourceIcon;resIcon=mxgraph.aws4.peering;" vertex="1" parent="1">
          <mxGeometry x="610" y="244" width="60" height="60" as="geometry" />
        </mxCell>
        <object placeholders="1" c4Name="Suscripción de servicios ompartidos" c4Type="ContainerScopeBoundary" c4Application="Container" label="&lt;font style=&quot;font-size: 16px&quot;&gt;&lt;b&gt;&lt;div style=&quot;text-align: left&quot;&gt;%c4Name%&lt;/div&gt;&lt;/b&gt;&lt;/font&gt;&lt;div style=&quot;text-align: left&quot;&gt;[%c4Application%]&lt;/div&gt;" id="j8BTfWTtLbgxG1cSn5Qa-92">
          <mxCell style="rounded=1;fontSize=11;whiteSpace=wrap;html=1;dashed=1;arcSize=20;fillColor=none;strokeColor=#666666;fontColor=#333333;labelBackgroundColor=none;align=left;verticalAlign=bottom;labelBorderColor=none;spacingTop=0;spacing=10;dashPattern=8 4;metaEdit=1;rotatable=0;perimeter=rectanglePerimeter;noLabel=0;labelPadding=0;allowArrows=0;connectable=0;expand=0;recursiveResize=0;editable=1;pointerEvents=0;absoluteArcSize=1;points=[[0.25,0,0],[0.5,0,0],[0.75,0,0],[1,0.25,0],[1,0.5,0],[1,0.75,0],[0.75,1,0],[0.5,1,0],[0.25,1,0],[0,0.75,0],[0,0.5,0],[0,0.25,0]];" vertex="1" parent="1">
            <mxGeometry x="-150" y="34" width="200" height="516" as="geometry" />
          </mxCell>
        </object>
        <mxCell id="j8BTfWTtLbgxG1cSn5Qa-93" value="" style="sketch=0;points=[[0,0,0],[0.25,0,0],[0.5,0,0],[0.75,0,0],[1,0,0],[0,1,0],[0.25,1,0],[0.5,1,0],[0.75,1,0],[1,1,0],[0,0.25,0],[0,0.5,0],[0,0.75,0],[1,0.25,0],[1,0.5,0],[1,0.75,0]];outlineConnect=0;fontColor=#232F3E;fillColor=#DD344C;strokeColor=#ffffff;dashed=0;verticalLabelPosition=bottom;verticalAlign=top;align=center;html=1;fontSize=12;fontStyle=0;aspect=fixed;shape=mxgraph.aws4.resourceIcon;resIcon=mxgraph.aws4.waf;" vertex="1" parent="1">
          <mxGeometry x="-89" y="79" width="78" height="78" as="geometry" />
        </mxCell>
        <mxCell id="j8BTfWTtLbgxG1cSn5Qa-98" style="edgeStyle=orthogonalEdgeStyle;rounded=0;orthogonalLoop=1;jettySize=auto;html=1;entryX=0.644;entryY=-0.012;entryDx=0;entryDy=0;entryPerimeter=0;" edge="1" parent="1" source="j8BTfWTtLbgxG1cSn5Qa-94" target="j8BTfWTtLbgxG1cSn5Qa-95">
          <mxGeometry relative="1" as="geometry">
            <mxPoint x="-350" y="230" as="targetPoint" />
          </mxGeometry>
        </mxCell>
        <mxCell id="j8BTfWTtLbgxG1cSn5Qa-99" style="edgeStyle=orthogonalEdgeStyle;rounded=0;orthogonalLoop=1;jettySize=auto;html=1;" edge="1" parent="1" source="j8BTfWTtLbgxG1cSn5Qa-94" target="j8BTfWTtLbgxG1cSn5Qa-96">
          <mxGeometry relative="1" as="geometry">
            <mxPoint x="-280" y="230" as="targetPoint" />
          </mxGeometry>
        </mxCell>
        <mxCell id="j8BTfWTtLbgxG1cSn5Qa-94" value="" style="sketch=0;outlineConnect=0;fontColor=#232F3E;gradientColor=none;fillColor=#232F3D;strokeColor=none;dashed=0;verticalLabelPosition=bottom;verticalAlign=top;align=center;html=1;fontSize=12;fontStyle=0;aspect=fixed;pointerEvents=1;shape=mxgraph.aws4.authenticated_user;" vertex="1" parent="1">
          <mxGeometry x="-354" y="52" width="78" height="78" as="geometry" />
        </mxCell>
        <mxCell id="j8BTfWTtLbgxG1cSn5Qa-95" value="" style="html=1;verticalLabelPosition=bottom;align=center;labelBackgroundColor=#ffffff;verticalAlign=top;strokeWidth=2;strokeColor=#0080F0;shadow=0;dashed=0;shape=mxgraph.ios7.icons.smartphone;" vertex="1" parent="1">
          <mxGeometry x="-380" y="232.32999999999998" width="40" height="66.67" as="geometry" />
        </mxCell>
        <mxCell id="j8BTfWTtLbgxG1cSn5Qa-96" value="desktop" style="sketch=0;outlineConnect=0;gradientColor=none;fontColor=#545B64;strokeColor=none;fillColor=#879196;dashed=0;verticalLabelPosition=bottom;verticalAlign=top;align=center;html=1;fontSize=12;fontStyle=0;aspect=fixed;shape=mxgraph.aws4.illustration_desktop;pointerEvents=1" vertex="1" parent="1">
          <mxGeometry x="-320" y="231.49999999999997" width="86.08" height="78.33" as="geometry" />
        </mxCell>
        <mxCell id="j8BTfWTtLbgxG1cSn5Qa-100" style="edgeStyle=orthogonalEdgeStyle;rounded=0;orthogonalLoop=1;jettySize=auto;html=1;entryX=0;entryY=0.5;entryDx=0;entryDy=0;entryPerimeter=0;" edge="1" parent="1" source="j8BTfWTtLbgxG1cSn5Qa-96" target="j8BTfWTtLbgxG1cSn5Qa-93">
          <mxGeometry relative="1" as="geometry" />
        </mxCell>
        <mxCell id="j8BTfWTtLbgxG1cSn5Qa-101" style="edgeStyle=orthogonalEdgeStyle;rounded=0;orthogonalLoop=1;jettySize=auto;html=1;exitX=1;exitY=0.5;exitDx=0;exitDy=0;exitPerimeter=0;entryX=0.44;entryY=0.017;entryDx=0;entryDy=0;entryPerimeter=0;" edge="1" parent="1" source="j8BTfWTtLbgxG1cSn5Qa-93" target="j8BTfWTtLbgxG1cSn5Qa-16">
          <mxGeometry relative="1" as="geometry" />
        </mxCell>
        <mxCell id="lpPe_WK2rdp0ibskAWoO-1" value="VNET" style="points=[[0,0],[0.25,0],[0.5,0],[0.75,0],[1,0],[1,0.25],[1,0.5],[1,0.75],[1,1],[0.75,1],[0.5,1],[0.25,1],[0,1],[0,0.75],[0,0.5],[0,0.25]];outlineConnect=0;gradientColor=none;html=1;whiteSpace=wrap;fontSize=12;fontStyle=0;container=1;pointerEvents=0;collapsible=0;recursiveResize=0;shape=mxgraph.aws4.group;grIcon=mxgraph.aws4.group_vpc2;strokeColor=#8C4FFF;fillColor=none;verticalAlign=top;align=left;spacingLeft=30;fontColor=#AAB7B8;dashed=0;" vertex="1" parent="1">
          <mxGeometry x="130" y="79" width="400" height="361" as="geometry" />
        </mxCell>
      </root>
    </mxGraphModel>
  </diagram>
</mxfile>
